<?xml version="1.0" encoding="UTF-8" standalone="no"?>
<!DOCTYPE svg PUBLIC "-//W3C//DTD SVG 1.1//EN" "http://www.w3.org/Graphics/SVG/1.1/DTD/svg11.dtd">
<svg width="100%" height="100%" viewBox="0 0 507 450" version="1.1" xmlns="http://www.w3.org/2000/svg" xmlns:xlink="http://www.w3.org/1999/xlink" xml:space="preserve" xmlns:serif="http://www.serif.com/" style="fill-rule:evenodd;clip-rule:evenodd;stroke-linejoin:round;stroke-miterlimit:1.41421;">
    <g transform="matrix(1.18856,0,0,1.18856,-47.3438,-19.9419)">
        <g transform="matrix(-1,0,0,-1,506.606,411.325)">
            <path d="M316.864,40.715C267.712,30.421 193.601,65.966 187.738,163.77L185.08,182.017L174.099,238.258C174.099,238.258 161.041,290.855 153.493,303.858C149.333,311.025 140.697,317.19 136.342,320.181C132.606,322.748 131.653,323.202 129.017,323.994C123.767,325.571 110.436,327.955 104.895,326.037C101.834,324.978 96.903,323.871 95.611,320.468C93.093,313.836 92.405,299.343 98.007,284.034C106.75,260.143 123.317,227.052 141.623,206.311C36.468,208.077 14.045,321.679 75.135,333.927C76.991,334.299 66.277,332.395 81.002,334.988C86.927,336.032 91.562,336.566 104.098,335.663C119.422,334.559 140.575,328.076 146.79,325.199C177.705,310.886 218.057,278.264 236.101,209.439C236.101,209.439 260.197,128.56 268.227,106.376C272.033,95.86 276.13,85.136 282.787,76.15C290.893,65.206 303.196,50.822 316.864,40.715Z" style="fill:url(#_Linear1);"/>
        </g>
        <g transform="matrix(1,0,0,1,-0.382233,1.33935)">
            <path d="M316.864,40.715C267.712,30.421 193.601,65.966 187.738,163.77L185.08,182.017L174.099,238.258C174.099,238.258 161.041,290.855 153.493,303.858C149.333,311.025 140.697,317.19 136.342,320.181C132.606,322.748 131.653,323.202 129.017,323.994C123.767,325.571 110.436,327.955 104.895,326.037C101.834,324.978 96.903,323.871 95.611,320.468C93.093,313.836 92.405,299.343 98.007,284.034C106.75,260.143 123.317,227.052 141.623,206.311C36.468,208.077 14.045,321.679 75.135,333.927C76.991,334.299 66.277,332.395 81.002,334.988C86.927,336.032 91.562,336.566 104.098,335.663C119.422,334.559 140.575,328.076 146.79,325.199C177.705,310.886 218.057,278.264 236.101,209.439C236.101,209.439 260.197,128.56 268.227,106.376C272.033,95.86 276.13,85.136 282.787,76.15C290.893,65.206 303.196,50.822 316.864,40.715Z" style="fill:url(#_Linear2);"/>
        </g>
    </g>
    <defs>
        <linearGradient id="_Linear1" x1="0" y1="0" x2="1" y2="0" gradientUnits="userSpaceOnUse" gradientTransform="matrix(-56.1563,-233.133,233.133,-56.1563,310.912,288.839)"><stop offset="0" style="stop-color:rgb(92,55,179);stop-opacity:1"/><stop offset="1" style="stop-color:rgb(169,69,187);stop-opacity:1"/></linearGradient>
        <linearGradient id="_Linear2" x1="0" y1="0" x2="1" y2="0" gradientUnits="userSpaceOnUse" gradientTransform="matrix(56.1563,233.133,-233.133,56.1563,196.076,121.147)"><stop offset="0" style="stop-color:rgb(92,55,179);stop-opacity:1"/><stop offset="1" style="stop-color:rgb(169,69,187);stop-opacity:1"/></linearGradient>
    </defs>
</svg>
